<svg xmlns="http://www.w3.org/2000/svg" version="1.1" xmlns:xlink="http://www.w3.org/1999/xlink"
     xmlns:svgjs="http://svgjs.dev/svgjs" viewBox="0 0 800 800">
    <g stroke-width="2" stroke="hsl(0, 0%, 100%)" fill="none" stroke-linecap="round" opacity="0.3">
        <path d="M378.95 99.72C388.32 99.96 397.66 101.19 406.94 103.35 416.23 105.94 425.49 109.35 434.69 113.48 443.94 117.84 453.17 122.75 462.39 128.12 471.68 133.48 480.99 139.14 490.33 145.02 499.78 150.69 509.3 156.48 518.88 162.32 528.61 167.84 538.43 173.39 548.32 178.94 558.36 184.13 568.47 189.35 578.61 194.6 588.85 199.54 599.07 204.57 609.19 209.73 619.3 214.64 629.2 219.75 638.78 225.08 648.16 230.25 657.07 235.71 665.36 241.47 673.22 247.16 680.29 253.19 686.43 259.56 691.93 265.91 696.35 272.64 699.59 279.72 702.06 286.8 703.3 294.25 703.28 302.05 702.53 309.85 700.6 317.99 697.55 326.44 694.04 334.89 689.64 343.65 684.49 352.7 679.33 361.74 673.76 371.06 667.96 380.64 662.67 390.23 657.59 399.86 652.88 409.53 649.02 419.2 645.65 428.93 642.8 438.71 640.89 448.52 639.45 458.41 638.43 468.37 638.19 478.41 638.19 488.55 638.3 498.78 638.91 509.12 639.4 519.57 639.65 530.1 640.06 540.74 640.02 551.44 639.44 562.16 638.75 572.92 637.37 583.62 635.27 594.19 632.88 604.65 629.71 614.84 625.75 624.62 621.46 634.09 616.4 642.98 610.61 651.14 604.52 658.74 597.75 665.42 590.4 671.04 582.79 675.91 574.67 679.59 566.11 682.02 557.39 683.66 548.3 684.06 538.91 683.25 529.44 681.84 519.72 679.44 509.83 676.16 499.9 672.76 489.84 668.86 479.68 664.69 469.52 661.01 459.28 657.49 449.01 654.34 438.75 652.26 428.46 650.86 418.16 650.27 407.85 651.01 397.78 652.55 387.95 654.77 378.1 658.03 368.47 661.64 359.06 665.39 349.63 669.61 340.39 673.52 331.36 676.92 322.28 680.17 313.38 682.53 304.67 683.87 295.88 684.6 287.27 684.1 278.82 682.36 270.29 679.82 261.92 676.02 253.72 671.04 245.44 665.31 237.32 658.53 229.38 650.84 221.37 642.6 213.55 633.64 205.96 624.1 198.32 614.27 190.93 604.04 183.82 593.55 176.71 582.96 169.91 572.25 163.47 561.49 157.09 550.78 151.11 540.08 145.56 529.47 140.13 518.96 135.18 508.53 130.74 498.22 126.46 488.01 122.72 477.9 119.55 467.89 116.58 457.96 114.18 448.09 112.4 438.29 110.8 428.54 109.81 418.83 109.44 409.17 109.22 399.52 109.6 389.89 110.6 380.31 111.69 370.73 113.33 361.41 115.46 352.37 117.62 343.32 120.22 334.56 123.24 326.09 126.2 317.63 129.53 309.48 133.19 301.67 136.72 293.87 140.56 286.41 144.67 279.32 148.61 272.23 152.8 265.5 157.23 259.14 161.47 252.77 165.94 246.74 170.64 241.06 175.16 235.31 179.91 229.87 184.9 224.71 189.74 219.41 194.83 214.33 200.18 209.45 205.43 204.34 210.96 199.35 216.76 194.46 222.51 189.25 228.56 184.08 234.9 178.94 241.22 173.45 247.86 167.95 254.79 162.48 261.72 156.68 268.96 150.93 276.49 145.29 284.03 139.44 291.85 133.79 299.94 128.44 308.03 123.07 316.38 118.15 324.96 113.77 333.55 109.61 342.35 106.16 351.36 103.52 360.36 101.31 369.56 100.02 378.94 99.72"
              stroke-dasharray="4 8" transform="rotate(0, 400, 400)" opacity="0.59"></path>
        <path d="M380.79 110.31C389.84 110.53 398.89 111.71 407.92 113.77 416.96 116.26 426 119.53 435.02 123.5 444.07 127.71 453.15 132.47 462.22 137.68 471.37 142.92 480.56 148.48 489.78 154.26 499.11 159.89 508.5 165.65 517.94 171.49 527.51 177.04 537.14 182.64 546.82 188.25 556.61 193.53 566.43 198.84 576.23 204.18 586.09 209.21 595.87 214.32 605.5 219.52 615.07 224.48 624.39 229.6 633.33 234.9 642.06 240.03 650.27 245.4 657.86 251.03 665.02 256.56 671.4 262.4 676.88 268.54 681.75 274.64 685.61 281.08 688.35 287.85 690.41 294.61 691.33 301.71 691.08 309.14 690.2 316.56 688.24 324.32 685.26 332.4 681.89 340.47 677.71 348.86 672.84 357.55 667.97 366.23 662.72 375.21 657.24 384.48 652.22 393.75 647.37 403.11 642.82 412.52 639.04 421.95 635.67 431.46 632.76 441.04 630.7 450.66 629.05 460.36 627.78 470.15 627.23 480 626.91 489.96 626.71 499.99 626.99 510.09 627.19 520.29 627.21 530.53 627.44 540.82 627.28 551.14 626.66 561.42 626.01 571.67 624.75 581.81 622.85 591.74 620.74 601.52 617.93 610.96 614.41 619.95 610.6 628.59 606.09 636.62 600.89 643.89 595.43 650.62 589.32 656.45 582.64 661.26 575.72 665.38 568.3 668.4 560.41 670.26 552.38 671.42 543.95 671.47 535.2 670.44 526.36 668.93 517.24 666.54 507.92 663.39 498.55 660.19 489.01 656.57 479.35 652.73 469.67 649.38 459.88 646.19 450.02 643.34 440.17 641.47 430.26 640.22 420.3 639.68 410.35 640.37 400.59 641.75 391.03 643.74 381.47 646.71 372.09 649.99 362.91 653.41 353.7 657.3 344.67 660.94 335.82 664.15 326.93 667.28 318.2 669.63 309.65 671.09 301.03 672.05 292.56 671.92 284.26 670.66 275.89 668.7 267.66 665.58 259.61 661.35 251.48 656.44 243.51 650.51 235.73 643.69 227.9 636.33 220.26 628.22 212.84 619.51 205.39 610.47 198.2 600.98 191.28 591.16 184.38 581.2 177.79 571.04 171.56 560.77 165.4 550.49 159.62 540.17 154.28 529.88 149.06 519.65 144.3 509.47 140.05 499.38 135.95 489.37 132.39 479.44 129.38 469.61 126.55 459.84 124.3 450.15 122.64 440.55 121.15 430.99 120.26 421.5 119.97 412.08 119.83 402.68 120.28 393.33 121.32 384.07 122.45 374.8 124.11 365.82 126.26 357.14 128.42 348.46 131.02 340.07 134.02 331.99 136.96 323.91 140.25 316.14 143.87 308.71 147.37 301.28 151.15 294.17 155.2 287.42 159.09 280.64 163.22 274.21 167.57 268.11 171.75 261.97 176.14 256.15 180.75 250.63 185.18 245.02 189.84 239.66 194.7 234.56 199.43 229.29 204.38 224.21 209.58 219.28 214.66 214.12 220 209.06 225.61 204.08 231.13 198.79 236.94 193.53 243.03 188.3 249.08 182.74 255.42 177.19 262.04 171.68 268.65 165.88 275.55 160.16 282.72 154.56 289.89 148.79 297.35 143.25 305.06 138.02 312.77 132.8 320.73 128.03 328.94 123.79 337.14 119.79 345.57 116.48 354.22 113.94 362.86 111.83 371.72 110.59 380.78 110.31"
              stroke-dasharray="4 5" transform="rotate(4.04, 400, 400)" opacity="0.23"></path>
        <path d="M383.29 120.9C392.04 121.11 400.81 122.23 409.58 124.2 418.37 126.57 427.18 129.7 435.99 133.51 444.85 137.56 453.73 142.15 462.64 147.2 471.61 152.3 480.63 157.73 489.69 163.4 498.83 168.95 508.04 174.66 517.28 180.47 526.62 186.04 536 191.66 545.4 197.31 554.87 202.66 564.33 208.05 573.73 213.46 583.14 218.59 592.43 223.78 601.52 229.04 610.51 234.06 619.21 239.21 627.51 244.51 635.56 249.64 643.09 254.96 649.99 260.51 656.47 265.94 662.18 271.64 667.03 277.61 671.33 283.52 674.66 289.73 676.96 296.24 678.64 302.73 679.27 309.53 678.83 316.66 677.85 323.76 675.88 331.19 672.99 338.93 669.77 346.67 665.8 354.71 661.21 363.07 656.64 371.42 651.7 380.08 646.52 389.04 641.77 398 637.14 407.07 632.77 416.22 629.07 425.38 625.73 434.64 622.77 443.99 620.58 453.36 618.75 462.83 617.25 472.38 616.42 481.98 615.8 491.66 615.3 501.41 615.28 511.2 615.2 521.05 614.98 530.9 615 540.77 614.7 550.61 614.01 560.35 613.33 570.03 612.14 579.53 610.39 588.76 608.49 597.81 605.97 606.47 602.8 614.63 599.42 622.44 595.38 629.61 590.71 636.03 585.8 641.93 580.29 646.95 574.23 651.01 567.96 654.46 561.18 656.87 553.94 658.23 546.56 659 538.78 658.77 530.66 657.57 522.44 656 513.93 653.66 505.17 650.67 496.37 647.68 487.37 644.35 478.2 640.84 469.02 637.81 459.7 634.93 450.28 632.36 440.85 630.7 431.33 629.59 421.75 629.1 412.16 629.72 402.73 630.96 393.47 632.74 384.2 635.42 375.09 638.39 366.15 641.49 357.19 645.06 348.38 648.42 339.74 651.42 331.05 654.4 322.52 656.72 314.13 658.24 305.7 659.38 297.41 659.54 289.27 658.69 281.08 657.24 273.02 654.73 265.13 651.19 257.19 647.03 249.4 641.91 241.8 635.92 234.16 629.41 226.72 622.16 219.5 614.29 212.27 606.06 205.29 597.34 198.58 588.25 191.92 578.98 185.56 569.44 179.55 559.74 173.62 549.99 168.07 540.14 162.94 530.27 157.95 520.41 153.4 510.57 149.34 500.79 145.44 491.05 142.05 481.38 139.21 471.8 136.54 462.26 134.43 452.8 132.89 443.44 131.52 434.12 130.73 424.87 130.52 415.71 130.46 406.58 130.96 397.52 132.04 388.56 133.21 379.61 134.89 370.95 137.03 362.61 139.19 354.25 141.78 346.2 144.75 338.47 147.66 330.73 150.92 323.3 154.49 316.2 157.95 309.07 161.68 302.27 165.67 295.79 169.5 289.28 173.57 283.07 177.85 277.18 181.97 271.22 186.29 265.54 190.81 260.13 195.17 254.6 199.73 249.3 204.49 244.21 209.11 238.94 213.95 233.83 219 228.85 223.94 223.63 229.12 218.49 234.54 213.41 239.88 208.05 245.47 202.71 251.33 197.4 257.13 191.8 263.21 186.22 269.55 180.7 275.86 174.92 282.46 169.25 289.31 163.72 296.15 158.06 303.26 152.64 310.63 147.55 317.99 142.49 325.6 137.88 333.46 133.8 341.3 129.96 349.39 126.79 357.7 124.36 366 122.34 374.53 121.17 383.28 120.9"
              stroke-dasharray="8 10" transform="rotate(8.08, 400, 400)" opacity="0.71"></path>
        <path d="M386.38 131.48C394.83 131.68 403.31 132.74 411.83 134.62 420.35 136.87 428.92 139.86 437.51 143.5 446.13 147.38 454.8 151.8 463.51 156.67 472.26 161.61 481.07 166.89 489.91 172.44 498.82 177.89 507.77 183.52 516.75 189.27 525.8 194.82 534.87 200.45 543.92 206.12 553.01 211.52 562.05 216.97 570.99 222.44 579.91 227.65 588.66 232.91 597.18 238.24 605.57 243.33 613.63 248.53 621.27 253.86 628.66 259 635.51 264.31 641.73 269.81 647.56 275.19 652.65 280.79 656.91 286.63 660.66 292.39 663.51 298.43 665.4 304.74 666.75 311.01 667.14 317.57 666.55 324.43 665.49 331.26 663.53 338.41 660.74 345.85 657.67 353.28 653.92 361.02 649.6 369.06 645.31 377.1 640.67 385.45 635.81 394.1 631.31 402.76 626.91 411.53 622.71 420.39 619.11 429.26 615.8 438.24 612.82 447.31 610.53 456.39 608.54 465.57 606.84 474.82 605.77 484.09 604.87 493.44 604.1 502.82 603.77 512.22 603.42 521.63 602.97 531.02 602.76 540.38 602.29 549.66 601.5 558.8 600.77 567.83 599.6 576.64 597.94 585.14 596.19 593.42 593.88 601.28 591.01 608.62 587.97 615.6 584.33 621.94 580.11 627.54 575.71 632.66 570.73 636.94 565.22 640.32 559.54 643.15 553.37 645.04 546.74 645.97 539.98 646.41 532.81 645.96 525.3 644.66 517.69 643.07 509.76 640.81 501.58 638 493.34 635.24 484.87 632.2 476.22 629.01 467.54 626.29 458.7 623.71 449.72 621.41 440.74 619.94 431.64 618.95 422.44 618.51 413.24 619.08 404.15 620.19 395.21 621.77 386.26 624.18 377.44 626.84 368.76 629.63 360.07 632.88 351.51 635.96 343.08 638.74 334.63 641.55 326.31 643.79 318.12 645.35 309.9 646.6 301.81 646.99 293.85 646.48 285.86 645.47 278.01 643.5 270.31 640.58 262.57 637.11 254.99 632.73 247.6 627.53 240.18 621.84 232.96 615.42 225.96 608.37 218.97 600.97 212.22 593.05 205.76 584.71 199.34 576.17 193.22 567.32 187.45 558.26 181.77 549.09 176.46 539.79 171.57 530.42 166.8 521.03 162.47 511.61 158.62 502.21 154.93 492.83 151.72 483.49 149.05 474.22 146.55 464.98 144.58 455.81 143.16 446.73 141.91 437.68 141.22 428.71 141.08 419.85 141.09 411 141.65 402.23 142.76 393.59 143.96 384.94 145.64 376.59 147.78 368.56 149.94 360.52 152.5 352.79 155.43 345.36 158.32 337.92 161.54 330.78 165.05 323.96 168.46 317.1 172.14 310.54 176.06 304.29 179.85 297.99 183.86 291.96 188.07 286.22 192.12 280.39 196.37 274.81 200.81 269.46 205.1 263.99 209.58 258.71 214.24 253.6 218.77 248.31 223.5 243.15 228.43 238.1 233.24 232.82 238.28 227.6 243.53 222.44 248.7 217.01 254.11 211.62 259.76 206.26 265.34 200.63 271.19 195.05 277.28 189.54 283.33 183.81 289.64 178.21 296.21 172.77 302.75 167.24 309.55 161.97 316.61 157.02 323.64 152.14 330.93 147.7 338.45 143.79 345.97 140.12 353.73 137.09 361.72 134.78 369.7 132.86 377.92 131.74 386.37 131.48"
              stroke-dasharray="2 9" transform="rotate(12.12, 400, 400)" opacity="0.71"></path>
        <path d="M389.93 142.07C398.09 142.26 406.29 143.26 414.53 145.03 422.79 147.17 431.1 150.01 439.44 153.48 447.81 157.18 456.23 161.42 464.69 166.1 473.19 170.87 481.73 175.98 490.31 181.37 498.93 186.7 507.59 192.23 516.24 197.9 524.94 203.41 533.64 209 542.28 214.66 550.94 220.09 559.51 225.57 567.94 231.08 576.33 236.36 584.51 241.69 592.43 247.07 600.2 252.23 607.62 257.49 614.61 262.84 621.33 268.02 627.53 273.34 633.1 278.82 638.3 284.16 642.8 289.7 646.51 295.46 649.76 301.12 652.18 307.02 653.71 313.17 654.77 319.26 654.94 325.63 654.23 332.27 653.12 338.87 651.19 345.76 648.51 352.94 645.6 360.1 642.08 367.55 638.02 375.31 634.01 383.05 629.66 391.09 625.09 399.44 620.85 407.79 616.67 416.25 612.64 424.8 609.15 433.36 605.9 442.02 602.91 450.76 600.54 459.51 598.43 468.34 596.56 477.22 595.26 486.12 594.12 495.06 593.09 504 592.49 512.93 591.87 521.85 591.18 530.69 590.75 539.48 590.1 548.15 589.19 556.63 588.37 564.98 587.17 573.06 585.56 580.8 583.9 588.3 581.76 595.36 579.11 601.89 576.35 608.06 573.05 613.61 569.22 618.45 562.98 624.64 547.76 632.23 538.88 633.53 532.7 633.7 526.11 633.08 519.17 631.73 512.14 630.16 504.79 628.02 497.16 625.4 489.48 622.88 481.54 620.12 473.4 617.24 465.23 614.82 456.87 612.53 448.35 610.47 439.82 609.19 431.15 608.32 422.35 607.92 413.55 608.44 404.83 609.42 396.23 610.82 387.62 612.97 379.11 615.35 370.71 617.84 362.31 620.78 354.01 623.58 345.84 626.12 337.64 628.75 329.56 630.88 321.6 632.42 313.61 633.75 305.74 634.31 298.01 634.08 290.25 633.44 282.61 631.92 275.13 629.55 267.63 626.7 260.29 623.01 253.13 618.53 245.96 613.62 238.98 607.99 232.23 601.74 225.5 595.15 219.01 588.03 212.8 580.47 206.65 572.68 200.8 564.55 195.29 556.16 189.87 547.65 184.81 538.96 180.16 530.15 175.64 521.29 171.54 512.36 167.9 503.42 164.42 494.47 161.41 485.53 158.9 476.64 156.57 467.76 154.74 458.93 153.45 450.18 152.32 441.45 151.72 432.8 151.66 424.24 151.74 415.7 152.34 407.25 153.47 398.91 154.7 390.57 156.39 382.53 158.51 374.79 160.65 367.05 163.19 359.6 166.07 352.44 168.92 345.27 172.09 338.39 175.54 331.8 178.9 325.17 182.53 318.81 186.38 312.74 190.11 306.6 194.05 300.72 198.19 295.07 202.18 289.35 206.37 283.83 210.73 278.51 214.95 273.06 219.35 267.78 223.93 262.64 228.37 257.32 233 252.11 237.81 246.99 242.51 241.65 247.42 236.37 252.53 231.14 257.55 225.67 262.79 220.23 268.26 214.84 273.65 209.23 279.28 203.66 285.15 198.19 290.96 192.55 297.03 187.04 303.33 181.72 309.6 176.34 316.13 171.23 322.89 166.45 329.63 161.76 336.61 157.5 343.84 153.77 351.04 150.27 358.49 147.39 366.18 145.2 373.85 143.37 381.77 142.31 389.92 142.07"
              stroke-dasharray="6 11" transform="rotate(16.16, 400, 400)" opacity="0.34"></path>
        <path d="M393.84 152.66C401.69 152.83 409.61 153.78 417.57 155.45 425.54 157.47 433.57 160.16 441.64 163.45 449.73 166.97 457.87 171.01 466.04 175.49 474.24 180.07 482.48 185 490.74 190.21 499.03 195.4 507.33 200.8 515.61 206.36 523.92 211.79 532.19 217.33 540.38 222.94 548.55 228.37 556.62 233.85 564.51 239.38 572.33 244.7 579.93 250.08 587.23 255.5 594.38 260.72 601.16 266.02 607.49 271.41 613.58 276.62 619.13 281.96 624.09 287.43 628.71 292.77 632.65 298.28 635.86 303.96 638.66 309.55 640.68 315.35 641.9 321.37 642.69 327.33 642.69 333.53 641.89 339.98 640.74 346.38 638.87 353.05 636.3 359.99 633.56 366.9 630.25 374.1 626.46 381.56 622.72 389.02 618.66 396.77 614.37 404.8 610.38 412.83 606.43 420.97 602.57 429.18 599.2 437.41 596.01 445.71 593.04 454.08 590.61 462.46 588.4 470.89 586.39 479.35 584.89 487.81 583.53 496.29 582.27 504.73 581.42 513.15 580.55 521.5 579.64 529.75 578.97 537.92 578.15 545.94 577.1 553.72 576.16 561.36 574.91 568.7 573.3 575.66 571.69 582.4 569.66 588.68 567.18 594.42 563.11 602.24 552.42 614 545.8 617.73 538.55 620.09 521.76 620.52 512.34 618.79 505.86 617.28 499.05 615.28 491.96 612.87 484.81 610.59 477.4 608.11 469.76 605.54 462.1 603.4 454.23 601.38 446.17 599.56 438.1 598.45 429.87 597.69 421.49 597.33 413.1 597.8 404.77 598.67 396.52 599.89 388.27 601.8 380.09 603.91 372.01 606.11 363.92 608.75 355.92 611.27 348.01 613.57 340.1 616 332.28 618 324.58 619.49 316.86 620.84 309.24 621.52 301.75 621.5 294.25 621.16 286.87 620.03 279.64 618.13 272.41 615.83 265.32 612.75 258.42 608.95 251.53 604.74 244.82 599.87 238.34 594.38 231.89 588.57 225.69 582.23 219.75 575.44 213.89 568.42 208.31 561.03 203.07 553.35 197.93 545.53 193.14 537.48 188.74 529.28 184.47 521.01 180.61 512.64 177.19 504.2 173.92 495.75 171.11 487.27 168.78 478.8 166.61 470.34 164.94 461.91 163.77 453.53 162.76 445.16 162.25 436.86 162.26 428.64 162.4 420.43 163.04 412.3 164.19 404.28 165.43 396.25 167.12 388.51 169.21 381.06 171.34 373.6 173.83 366.41 176.67 359.51 179.47 352.58 182.58 345.92 185.97 339.53 189.27 333.1 192.83 326.91 196.61 320.97 200.28 314.97 204.16 309.19 208.22 303.63 212.15 297.97 216.27 292.49 220.55 287.18 224.7 281.75 229.03 276.44 233.52 271.27 237.88 265.92 242.42 260.66 247.13 255.48 251.73 250.1 256.52 244.77 261.5 239.49 266.38 234 271.48 228.56 276.77 223.17 281.99 217.59 287.44 212.08 293.1 206.68 298.71 201.14 304.55 195.76 310.61 190.58 316.64 185.37 322.9 180.44 329.4 175.85 335.86 171.35 342.57 167.29 349.51 163.73 356.42 160.41 363.58 157.68 370.97 155.61 378.35 153.89 385.97 152.89 393.83 152.66"
              stroke-dasharray="2 3" transform="rotate(20.200000000000003, 400, 400)" opacity="0.68"></path>
        <path d="M397.96 163.25C405.51 163.4 413.13 164.29 420.79 165.87 428.47 167.77 436.19 170.3 443.96 173.4 451.74 176.74 459.57 180.57 467.41 184.84 475.28 189.22 483.18 193.95 491.07 198.97 498.98 203.99 506.89 209.23 514.75 214.65 522.61 219.97 530.42 225.42 538.11 230.96 545.78 236.35 553.3 241.81 560.63 247.33 567.87 252.66 574.86 258.05 581.55 263.49 588.07 268.75 594.22 274.09 599.92 279.49 605.39 284.74 610.34 290.1 614.72 295.56 618.79 300.9 622.22 306.38 624.97 312.01 627.36 317.55 629.03 323.27 629.97 329.18 630.55 335.03 630.4 341.08 629.53 347.36 628.38 353.59 626.56 360.07 624.13 366.78 621.55 373.47 618.46 380.41 614.93 387.6 611.44 394.78 607.66 402.23 603.65 409.94 599.91 417.65 596.17 425.44 592.5 433.3 589.26 441.16 586.14 449.08 583.2 457.04 580.74 465.01 578.45 473 576.33 480.99 574.67 488.97 573.12 496.93 571.66 504.82 570.57 512.68 569.48 520.44 568.34 528.05 567.47 535.58 566.45 542.91 565.25 549.98 564.19 556.9 562.85 563.5 561.22 569.71 558.63 578.46 551.49 593 546.84 598.54 541.64 602.92 528.95 607.73 521.52 608.18 516.34 608 510.79 607.22 504.89 605.88 498.93 604.46 492.64 602.61 486.05 600.42 479.42 598.39 472.52 596.18 465.38 593.9 458.21 592.04 450.82 590.27 443.22 588.68 435.62 587.72 427.83 587.06 419.88 586.75 411.92 587.17 404 587.93 396.12 588.99 388.25 590.67 380.42 592.52 372.67 594.45 364.92 596.79 357.23 599.04 349.63 601.11 342.02 603.32 334.5 605.17 327.08 606.58 319.65 607.91 312.32 608.66 305.11 608.8 297.9 608.68 290.8 607.88 283.85 606.38 276.91 604.55 270.12 602.02 263.5 598.81 256.9 595.25 250.5 591.06 244.31 586.29 238.17 581.22 232.26 575.63 226.62 569.59 221.05 563.33 215.78 556.68 210.82 549.71 205.96 542.6 201.45 535.23 197.31 527.67 193.3 520.03 189.69 512.25 186.49 504.37 183.45 496.46 180.84 488.49 178.69 480.5 176.69 472.5 175.16 464.5 174.11 456.54 173.21 448.57 172.8 440.65 172.87 432.79 173.07 424.94 173.75 417.15 174.91 409.45 176.16 401.75 177.83 394.31 179.89 387.13 181.99 379.94 184.44 373.01 187.22 366.34 189.97 359.64 193.01 353.18 196.32 346.96 199.57 340.7 203.05 334.66 206.75 328.83 210.35 322.95 214.15 317.25 218.14 311.74 222 306.13 226.05 300.68 230.25 295.38 234.33 289.95 238.58 284.63 242.98 279.42 247.27 274.05 251.72 268.76 256.33 263.53 260.84 258.13 265.52 252.78 270.37 247.49 275.14 242.01 280.09 236.59 285.23 231.23 290.3 225.72 295.58 220.3 301.05 215 306.47 209.6 312.1 204.37 317.95 199.35 323.75 194.33 329.78 189.59 336.02 185.2 342.24 180.92 348.68 177.06 355.35 173.69 361.99 170.55 368.87 167.97 375.97 166.03 383.06 164.4 390.39 163.46 397.95 163.25"
              stroke-dasharray="4 10" transform="rotate(24.24, 400, 400)" opacity="0.09"></path>
        <path d="M402.14 173.83C409.4 173.98 416.7 174.81 424.05 176.28 431.41 178.06 438.81 180.44 446.24 183.36 453.69 186.5 461.17 190.12 468.66 194.17 476.16 198.33 483.67 202.85 491.16 207.65 498.66 212.48 506.13 217.54 513.53 222.79 520.92 227.98 528.23 233.3 535.4 238.74 542.53 244.05 549.49 249.45 556.24 254.91 562.89 260.23 569.28 265.6 575.35 271.03 581.26 276.31 586.8 281.65 591.9 287.06 596.77 292.33 601.16 297.68 604.99 303.13 608.55 308.47 611.52 313.92 613.85 319.5 616.56 327.82 618.21 345.17 617.17 354.25 616.02 360.33 614.28 366.61 611.98 373.11 609.57 379.58 606.7 386.27 603.41 393.19 600.18 400.1 596.67 407.24 592.93 414.62 589.43 421.99 585.91 429.42 582.43 436.89 579.31 444.37 576.29 451.88 573.4 459.4 570.93 466.92 568.59 474.44 566.38 481.92 564.58 489.39 562.87 496.8 561.23 504.11 559.93 511.38 558.64 518.52 557.31 525.47 556.22 532.34 555.02 538.98 553.68 545.34 551.76 554.5 546.76 570.6 543.52 577.33 539.91 583.14 530.73 591.43 525.14 593.82 519.05 595.19 504.92 594.68 496.93 593 491.44 591.69 485.63 590.02 479.53 588.06 473.39 586.27 466.97 584.34 460.31 582.34 453.62 580.72 446.7 579.19 439.57 577.81 432.44 577 425.1 576.44 417.58 576.16 410.06 576.54 402.55 577.2 395.07 578.1 387.59 579.57 380.14 581.18 372.74 582.86 365.35 584.92 358.01 586.9 350.73 588.72 343.47 590.71 336.27 592.39 329.16 593.7 322.05 594.97 315.04 595.75 308.13 595.99 301.24 596.05 294.45 595.5 287.81 594.34 281.19 592.9 274.71 590.83 268.4 588.15 262.13 585.18 256.05 581.61 250.17 577.49 244.35 573.12 238.76 568.23 233.44 562.91 228.19 557.37 223.22 551.44 218.56 545.18 214 538.78 209.77 532.1 205.9 525.2 202.16 518.21 198.79 511.04 195.83 503.76 193 496.42 190.59 488.99 188.62 481.51 186.79 474.02 185.41 466.49 184.49 458.97 183.7 451.44 183.37 443.93 183.5 436.45 183.75 428.98 184.46 421.55 185.63 414.18 186.88 406.82 188.53 399.68 190.56 392.78 192.61 385.87 195.01 379.18 197.72 372.72 200.41 366.24 203.39 359.97 206.61 353.91 209.78 347.81 213.19 341.9 216.8 336.18 220.33 330.39 224.05 324.77 227.95 319.3 231.74 313.75 235.7 308.33 239.82 303.03 243.83 297.61 248 292.29 252.31 287.06 256.52 281.68 260.88 276.38 265.39 271.14 269.8 265.75 274.38 260.41 279.12 255.13 283.77 249.7 288.6 244.33 293.59 239.04 298.52 233.64 303.64 228.33 308.94 223.16 314.18 217.93 319.62 212.87 325.26 208.05 330.86 203.23 336.66 198.71 342.67 194.53 348.65 190.47 354.84 186.82 361.24 183.64 367.63 180.68 374.23 178.26 381.05 176.44 387.85 174.91 394.88 174.03 402.13 173.83"
              stroke-dasharray="8 8" transform="rotate(28.28, 400, 400)" opacity="0.32"></path>
        <path d="M406.26 184.42C413.2 184.55 420.18 185.32 427.2 186.7 434.22 188.35 441.28 190.57 448.35 193.31 455.44 196.25 462.54 199.66 469.64 203.47 476.75 207.41 483.84 211.69 490.89 216.27 497.95 220.89 504.95 225.74 511.86 230.79 518.75 235.81 525.54 240.98 532.17 246.27 538.75 251.47 545.14 256.77 551.31 262.15 557.37 267.41 563.16 272.73 568.63 278.11 573.95 283.37 578.9 288.69 583.42 294.07 587.74 299.33 591.59 304.67 594.94 310.08 599.3 318.11 604.78 334.57 605.83 343.06 606.08 348.71 605.73 354.51 604.8 360.47 603.68 366.4 602.02 372.5 599.87 378.78 597.62 385.04 594.96 391.49 591.92 398.13 588.94 404.76 585.69 411.59 582.21 418.62 578.95 425.64 575.64 432.7 572.35 439.77 569.37 446.84 566.45 453.91 563.62 460.97 561.16 468.02 558.79 475.03 556.52 481.99 554.62 488.91 552.78 495.76 550.99 502.47 549.52 509.13 548.04 515.64 546.53 521.94 544.58 531.13 540.29 547.91 537.77 555.3 531.79 567.36 519.8 579.61 514.6 581.49 508.98 582.51 495.95 581.76 488.58 580.19 483.52 579.02 478.15 577.53 472.5 575.8 466.82 574.24 460.87 572.57 454.67 570.84 448.45 569.47 441.99 568.16 435.32 566.97 428.64 566.29 421.75 565.82 414.68 565.57 407.6 565.91 400.51 566.47 393.44 567.24 386.36 568.51 379.31 569.89 372.29 571.33 365.27 573.12 358.3 574.85 351.38 576.44 344.47 578.2 337.63 579.7 330.86 580.88 324.1 582.07 317.43 582.83 310.86 583.13 304.31 583.3 297.87 582.94 291.56 582.05 285.28 580.94 279.14 579.26 273.17 577.04 267.24 574.57 261.5 571.55 255.96 568.03 250.48 564.28 245.23 560.05 240.23 555.39 235.3 550.54 230.65 545.31 226.3 539.73 222.05 534.02 218.11 528.02 214.52 521.78 211.05 515.44 207.93 508.91 205.2 502.22 202.6 495.48 200.39 488.62 198.6 481.68 196.94 474.71 195.69 467.68 194.89 460.62 194.21 453.56 193.96 446.48 194.15 439.41 194.45 432.34 195.18 425.28 196.35 418.26 197.59 411.24 199.22 404.41 201.2 397.79 203.21 391.16 205.55 384.72 208.18 378.47 210.8 372.21 213.69 366.12 216.83 360.21 219.92 354.27 223.23 348.49 226.75 342.86 230.19 337.18 233.82 331.63 237.62 326.22 241.33 320.72 245.21 315.34 249.23 310.05 253.16 304.67 257.24 299.36 261.46 294.14 265.58 288.79 269.85 283.51 274.26 278.29 278.58 272.94 283.06 267.64 287.68 262.42 292.22 257.07 296.92 251.79 301.78 246.62 306.57 241.34 311.53 236.19 316.66 231.19 321.74 226.14 327.01 221.29 332.45 216.67 337.85 212.09 343.44 207.79 349.22 203.83 354.97 200 360.92 196.56 367.07 193.58 373.19 190.81 379.53 188.55 386.06 186.85 392.58 185.43 399.31 184.6 406.25 184.42"
              stroke-dasharray="11 4" transform="rotate(32.32, 400, 400)" opacity="0.14"></path>
        <path d="M410.16 195.01C416.77 195.13 423.41 195.84 430.08 197.12 436.75 198.65 443.44 200.71 450.14 203.26 456.84 206 463.54 209.19 470.22 212.76 476.9 216.46 483.56 220.5 490.15 224.83 496.73 229.22 503.24 233.84 509.65 238.67 516.02 243.49 522.27 248.47 528.35 253.59 534.38 258.64 540.2 263.8 545.79 269.05 551.28 274.21 556.49 279.45 561.38 284.74 566.13 289.94 570.52 295.2 574.51 300.52 578.31 305.73 581.67 311.02 584.56 316.38 588.31 324.33 592.88 340.57 593.65 348.9 593.77 354.44 593.37 360.11 592.44 365.91 591.36 371.67 589.8 377.59 587.79 383.64 585.71 389.68 583.26 395.88 580.46 402.23 577.71 408.58 574.71 415.09 571.49 421.75 568.46 428.42 565.37 435.08 562.26 441.73 559.43 448.38 556.62 455 553.87 461.57 551.44 468.14 549.07 474.64 546.77 481.04 544.78 487.42 542.84 493.69 540.94 499.8 538.5 508.8 533.82 525.62 531.43 533.28 529.13 540.44 523.77 552.67 520.58 557.61 513.06 564.65 498.84 569.73 492.98 569.57 486.77 568.89 472.81 565.78 465.1 563.63 459.84 562.31 454.33 560.89 448.57 559.41 442.79 558.26 436.78 557.16 430.56 556.15 424.33 555.59 417.89 555.2 411.26 554.98 404.63 555.28 397.98 555.76 391.32 556.4 384.67 557.49 378.02 558.66 371.4 559.87 364.78 561.41 358.19 562.88 351.66 564.24 345.13 565.78 338.66 567.09 332.26 568.14 325.87 569.21 319.57 569.92 313.36 570.24 307.18 570.48 301.1 570.25 295.15 569.56 289.24 568.71 283.46 567.36 277.85 565.51 272.29 563.48 266.9 560.95 261.71 557.95 256.59 554.76 251.68 551.12 247.02 547.07 242.44 542.86 238.11 538.27 234.08 533.35 230.14 528.3 226.5 522.95 223.18 517.35 219.98 511.66 217.12 505.75 214.62 499.66 212.24 493.53 210.23 487.24 208.61 480.84 207.12 474.42 206.02 467.9 205.32 461.33 204.75 454.75 204.57 448.12 204.82 441.47 205.16 434.82 205.91 428.15 207.07 421.49 208.3 414.83 209.89 408.32 211.82 401.98 213.77 395.64 216.04 389.45 218.59 383.43 221.13 377.38 223.93 371.49 226.97 365.74 229.97 359.96 233.18 354.31 236.59 348.8 239.94 343.23 243.47 337.77 247.16 332.42 250.78 327 254.56 321.67 258.48 316.43 262.32 311.1 266.3 305.85 270.42 300.66 274.45 295.37 278.62 290.14 282.92 284.98 287.14 279.71 291.51 274.5 296.01 269.37 300.44 264.14 305.01 259 309.73 253.96 314.39 248.86 319.2 243.89 324.17 239.08 329.09 234.26 334.18 229.63 339.42 225.24 344.63 220.9 350.02 216.84 355.57 213.12 361.1 209.52 366.81 206.31 372.7 203.53 378.58 200.94 384.63 198.84 390.88 197.26 397.11 195.94 403.54 195.18 410.15 195.01"
              stroke-dasharray="7 2" transform="rotate(36.36, 400, 400)" opacity="0.23"></path>
        <path d="M413.7 205.6C419.98 205.7 426.27 206.36 432.57 207.54 438.87 208.95 445.18 210.85 451.48 213.21 464.07 218.47 476.6 225.3 488.84 233.35 501.01 241.66 512.8 250.87 523.92 260.7 534.8 270.39 544.79 280.52 553.61 290.93 561.9 301.02 568.75 311.4 573.89 322 578.29 332.31 580.84 342.95 581.42 353.9 581.32 364.68 579.4 375.91 575.74 387.57 573.84 393.38 571.59 399.31 569.02 405.36 566.5 411.41 563.75 417.59 560.78 423.88 557.97 430.17 555.08 436.44 552.17 442.65 549.48 448.86 546.8 455.02 544.14 461.1 539.66 473.23 535.29 484.96 531.06 496.06 527.82 506.94 524.43 516.98 520.78 525.88 517.7 534.34 514 541.42 509.54 546.9 505.26 551.77 499.98 554.93 493.65 556.32 487.28 557.28 479.78 556.72 471.21 554.82 462.53 553.17 452.81 550.8 442.15 548.04 434 546.65 416.64 544.74 407.45 544.4 401.27 544.66 395.05 545.06 388.82 545.59 382.6 546.5 376.37 547.48 370.16 548.48 357.77 551.34 345.46 553.79 333.43 555.48 321.47 557.4 309.81 557.94 298.65 556.94 287.63 555.5 277.17 552.26 267.47 547.32 258.02 541.76 249.43 534.59 241.9 526.05 234.74 517.08 228.75 506.97 224.09 496.04 219.88 484.9 217.07 473.13 215.79 460.98 215.31 454.88 215.21 448.72 215.5 442.5 215.88 436.28 216.64 430.02 217.78 423.72 219 417.43 220.55 411.26 222.41 405.22 224.31 399.17 226.5 393.25 228.95 387.46 233.85 375.82 239.7 364.63 246.33 353.89 252.75 342.98 259.87 332.38 267.55 322.13 274.94 311.59 282.89 301.26 291.34 291.22 299.49 280.85 308.19 270.76 317.39 261.11 326.38 251.29 335.96 242.08 346.1 233.76 356.1 225.68 366.75 218.8 378.03 213.47 383.64 211.08 389.42 209.13 395.37 207.68 401.31 206.45 407.42 205.75 413.69 205.6"
              stroke-dasharray="2 1" transform="rotate(40.400000000000006, 400, 400)" opacity="0.61"></path>
        <path d="M416.77 216.18C428.62 216.6 440.49 219.01 452.24 223.17 464 228.01 475.61 234.34 486.87 241.84 498.06 249.63 508.8 258.32 518.84 267.64 528.63 276.91 537.55 286.65 545.32 296.7 552.62 306.52 558.58 316.63 562.96 326.94 566.72 337.03 568.82 347.41 569.15 358.02 568.94 368.5 567.11 379.34 563.74 390.48 560.26 401.59 555.63 413.08 550.06 424.9 545.04 436.72 539.75 448.29 534.44 459.48 530.04 470.62 525.67 481.27 521.36 491.22 517.9 500.98 514.3 509.86 510.46 517.62 507.16 525.01 503.32 531.1 498.85 535.72 494.59 539.87 489.46 542.51 483.45 543.6 477.43 544.41 470.42 543.93 462.45 542.3 454.41 540.98 445.41 539.04 435.54 536.75 425.62 535.54 414.87 534.51 403.39 533.81 391.91 534.66 380.28 535.83 368.7 537.16 357.15 539.55 345.69 541.57 334.47 542.94 323.33 544.59 312.49 545.07 302.12 544.24 291.9 543.11 282.22 540.42 273.27 536.21 264.57 531.52 256.68 525.35 249.8 517.9 243.27 510.06 237.82 501.12 233.63 491.32 229.85 481.32 227.36 470.64 226.3 459.47 225.61 448.26 226.32 436.67 228.5 424.86 230.92 413.04 234.58 401.56 239.27 390.48 243.98 379.35 249.6 368.55 255.96 358.11 262.15 347.53 269.02 337.2 276.44 327.16 283.6 316.89 291.31 306.82 299.48 297.04 307.4 287.03 315.84 277.32 324.73 268.07 333.42 258.75 342.66 250.06 352.39 242.25 362.01 234.71 372.2 228.33 382.94 223.42 393.62 219.19 404.91 216.7 416.76 216.18"
              stroke-dasharray="11 2" transform="rotate(44.44, 400, 400)" opacity="0.50"></path>
        <path d="M419.26 226.77C430.38 227.14 441.46 229.33 452.36 233.13 463.25 237.56 473.92 243.38 484.21 250.31 494.4 257.55 504.11 265.67 513.1 274.44 521.86 283.22 529.75 292.49 536.55 302.09 542.94 311.54 548.09 321.29 551.8 331.23 555 341.01 556.71 351.04 556.85 361.25 556.58 371.36 554.86 381.74 551.78 392.34 548.63 402.9 544.43 413.74 539.34 424.76 534.73 435.79 529.79 446.48 524.75 456.7 520.47 466.86 516.15 476.47 511.82 485.34 508.22 494.03 504.46 501.85 500.48 508.59 495.02 517.65 481.8 528.85 473.55 530.86 467.83 531.61 461.25 531.24 453.82 529.91 446.36 528.92 438.03 527.38 428.91 525.52 419.75 524.62 409.82 523.82 399.21 523.22 388.6 523.96 377.85 524.89 367.13 525.9 356.45 527.86 345.84 529.47 335.46 530.52 325.18 531.89 315.17 532.26 305.62 531.51 296.22 530.59 287.34 528.32 279.16 524.71 271.21 520.75 264.03 515.45 257.8 508.96 251.88 502.16 246.98 494.29 243.25 485.55 239.87 476.64 237.7 467 236.84 456.81 236.32 446.57 237.09 435.87 239.22 424.84 241.57 413.81 245.07 402.98 249.55 392.44 254.05 381.86 259.41 371.51 265.48 361.43 271.43 351.25 278.02 341.26 285.13 331.52 292.04 321.61 299.47 311.9 307.34 302.48 314.99 292.9 323.13 283.65 331.68 274.88 340.06 266.11 348.93 257.98 358.24 250.71 367.44 243.74 377.16 237.87 387.34 233.37 397.48 229.5 408.14 227.23 419.26 226.77"
              stroke-dasharray="10 11" transform="rotate(48.48, 400, 400)" opacity="0.83"></path>
        <path d="M421.08 237.36C431.45 237.68 441.71 239.66 451.74 243.11 461.75 247.13 471.49 252.43 480.8 258.79 490.02 265.45 498.71 272.97 506.7 281.13 514.47 289.35 521.41 298.08 527.32 307.15 532.88 316.15 537.3 325.45 540.43 334.93 543.15 344.3 544.54 353.9 544.54 363.63 544.23 373.29 542.65 383.16 539.85 393.15 537.03 403.12 533.24 413.26 528.62 423.48 524.4 433.7 519.82 443.5 515.07 452.77 510.96 462 506.73 470.61 502.43 478.47 498.75 486.19 494.9 493.05 490.83 498.89 485.19 506.76 472 516.4 464.04 518.16 458.58 518.9 452.38 518.69 445.45 517.66 438.5 516.98 430.8 515.83 422.38 514.36 413.94 513.74 404.81 513.14 395.05 512.63 385.3 513.26 375.42 513.99 365.57 514.72 355.76 516.28 346.03 517.5 336.52 518.24 327.1 519.31 317.95 519.53 309.24 518.8 300.67 518 292.6 516.04 285.18 512.92 277.98 509.55 271.51 504.99 265.92 499.34 260.61 493.45 256.24 486.55 252.95 478.79 249.97 470.89 248.09 462.24 247.43 453 247.05 443.71 247.87 433.89 249.94 423.67 252.21 413.45 255.54 403.31 259.78 393.35 264.05 383.38 269.14 373.53 274.9 363.9 280.56 354.19 286.84 344.62 293.62 335.28 300.25 325.82 307.36 316.55 314.89 307.58 322.24 298.52 330.04 289.8 338.21 281.58 346.25 273.41 354.72 265.87 363.57 259.17 372.34 252.78 381.55 247.42 391.14 243.34 400.71 239.82 410.71 237.77 421.08 237.36"
              stroke-dasharray="4 6" transform="rotate(52.52, 400, 400)" opacity="0.80"></path>
        <path d="M422.17 247.95C431.77 248.23 441.19 250 450.34 253.1 459.47 256.71 468.28 261.5 476.64 267.27 484.91 273.33 492.64 280.22 499.67 287.73 506.52 295.35 512.58 303.47 517.67 311.94 522.49 320.39 526.27 329.14 528.89 338.08 531.19 346.96 532.33 356.03 532.24 365.21 531.93 374.34 530.49 383.62 527.98 392.96 525.46 402.29 522.07 411.71 517.9 421.11 514.07 430.51 509.84 439.44 505.4 447.8 501.49 456.12 497.39 463.81 493.18 470.75 489.49 477.58 485.6 483.58 481.51 488.65 475.77 495.51 462.67 503.93 455 505.55 449.78 506.32 443.93 506.3 437.45 505.57 430.99 505.19 423.86 504.38 416.12 503.27 408.36 502.89 399.99 502.47 391.07 502.05 382.15 502.58 373.14 503.12 364.16 503.6 355.22 504.79 346.37 505.67 337.73 506.11 329.18 506.88 320.89 506.94 313.02 506.18 305.29 505.43 298.02 503.69 291.38 500.94 284.92 498.04 279.14 494.09 274.18 489.16 269.46 484.05 265.6 478.01 262.73 471.15 260.13 464.18 258.54 456.46 258.05 448.13 257.81 439.75 258.66 430.81 260.66 421.41 262.83 412 265.98 402.58 269.97 393.27 274 383.94 278.79 374.67 284.21 365.56 289.56 356.4 295.5 347.34 301.92 338.49 308.21 329.57 314.98 320.83 322.12 312.39 329.13 303.93 336.55 295.81 344.31 288.18 351.96 280.66 359.99 273.74 368.35 267.64 376.64 261.83 385.31 256.99 394.3 253.32 403.26 250.15 412.57 248.3 422.17 247.95"
              stroke-dasharray="5 3" transform="rotate(56.56, 400, 400)" opacity="0.75"></path>
        <path d="M422.49 258.53C431.29 258.77 439.88 260.34 448.15 263.1 456.4 266.31 464.3 270.59 471.73 275.77 479.08 281.23 485.9 287.47 492.04 294.3 498.04 301.25 503.28 308.71 507.65 316.52 511.8 324.35 515.02 332.48 517.21 340.79 519.17 349.08 520.09 357.55 519.96 366.09 519.66 374.62 518.38 383.25 516.14 391.89 513.93 400.53 510.92 409.18 507.18 417.76 503.72 426.34 499.86 434.41 495.75 441.9 492.05 449.36 488.14 456.19 484.07 462.3 480.43 468.33 476.57 473.59 472.51 478 466.75 484.01 453.85 491.5 446.47 493.07 441.48 493.91 435.96 494.08 429.93 493.64 423.91 493.53 417.33 493.04 410.24 492.25 403.13 492.07 395.5 491.8 387.4 491.46 379.29 491.91 371.13 492.28 363.02 492.54 354.95 493.42 346.96 493.98 339.2 494.14 331.51 494.63 324.09 494.5 317.06 493.68 310.14 492.92 303.67 491.32 297.78 488.87 292.05 486.33 286.95 482.88 282.6 478.56 278.45 474.12 275.09 468.83 272.62 462.78 270.38 456.64 269.05 449.79 268.72 442.31 268.6 434.81 269.47 426.73 271.38 418.15 273.44 409.57 276.39 400.91 280.11 392.28 283.88 383.65 288.35 375.03 293.41 366.51 298.43 357.97 304 349.52 310.01 341.24 315.95 332.94 322.31 324.82 329.03 316.99 335.66 309.18 342.65 301.72 349.95 294.75 357.17 287.89 364.72 281.63 372.55 276.13 380.33 270.91 388.42 266.57 396.76 263.31 405.09 260.48 413.69 258.84 422.49 258.53"
              stroke-dasharray="5 11" transform="rotate(60.599999999999994, 400, 400)" opacity="0.96"></path>
        <path d="M422.03 269.12C430.03 269.32 437.77 270.69 445.17 273.13 452.56 275.94 459.57 279.72 466.11 284.31 472.59 289.16 478.55 294.73 483.88 300.86 489.08 307.13 493.59 313.87 497.32 320.96 500.88 328.1 503.61 335.54 505.44 343.15 507.09 350.77 507.86 358.56 507.7 366.41 507.43 374.26 506.31 382.18 504.35 390.07 502.42 397.97 499.78 405.85 496.46 413.6 493.37 421.34 489.87 428.58 486.1 435.25 482.65 441.9 478.96 447.94 475.08 453.31 469.67 460.94 458.14 472.42 451.89 476.2 445.57 479.2 431.17 481.88 422.97 481.89 417.39 482.02 411.34 481.8 404.86 481.29 398.39 481.29 391.47 481.15 384.16 480.87 376.85 481.24 369.52 481.47 362.26 481.55 355.03 482.14 347.91 482.43 341.02 482.35 334.18 482.57 327.6 482.26 321.39 481.36 312.44 479.8 297.19 473.02 291.19 467.68 286.15 461.49 280.17 445.42 279.44 435.73 279.42 429.05 280.29 421.8 282.09 414.05 284.03 406.29 286.78 398.41 290.22 390.52 293.71 382.63 297.84 374.71 302.51 366.87 307.17 359.03 312.34 351.25 317.92 343.63 323.44 336.02 329.37 328.58 335.63 321.44 341.82 314.34 348.34 307.58 355.13 301.3 361.87 295.14 368.9 289.55 376.15 284.65 383.38 280.02 390.85 276.19 398.52 273.32 406.17 270.83 414.04 269.39 422.03 269.12"
              stroke-dasharray="2 9" transform="rotate(64.64, 400, 400)" opacity="0.34"></path>
        <path d="M420.81 279.71C427.98 279.87 434.88 281.06 441.44 283.17 447.97 285.6 454.13 288.89 459.84 292.91 465.49 297.15 470.65 302.05 475.22 307.46 479.7 313.01 483.56 319.01 486.71 325.35 489.75 331.74 492.06 338.43 493.59 345.28 495 352.16 495.64 359.2 495.49 366.3 495.27 373.4 494.31 380.56 492.62 387.67 490.96 394.79 488.66 401.87 485.74 408.79 483 415.71 479.87 422.15 476.45 428.05 473.28 433.93 469.84 439.25 466.21 443.96 461.03 450.67 449.91 460.83 443.9 464.26 437.83 467.08 424.24 469.98 416.64 470.32 411.49 470.65 405.96 470.67 400.09 470.39 394.23 470.54 388 470.5 381.47 470.28 374.94 470.58 368.42 470.7 362 470.63 355.59 470.98 349.32 471.03 343.26 470.74 334.37 470.48 318.29 467.66 311.37 464.85 305.11 461.43 295.68 451.25 292.72 444.52 291.13 439.8 290.27 434.46 290.2 428.58 290.27 422.67 291.12 416.23 292.81 409.3 294.61 402.37 297.14 395.29 300.28 388.17 303.47 381.06 307.25 373.9 311.52 366.8 315.79 359.7 320.52 352.66 325.63 345.78 330.72 338.92 336.17 332.23 341.92 325.82 347.62 319.48 353.63 313.46 359.87 307.88 366.08 302.44 372.54 297.51 379.17 293.23 385.8 289.17 392.62 285.83 399.58 283.35 406.53 281.18 413.64 279.93 420.81 279.71"
              stroke-dasharray="6 10" transform="rotate(68.68, 400, 400)" opacity="0.92"></path>
        <path d="M418.87 290.3C431.57 290.85 443.1 294.88 452.98 301.57 462.68 309.05 470.5 318.74 475.91 329.75 480.97 341.04 483.54 353.37 483.34 365.93 482.98 378.57 480.2 391.36 475.02 403.58 470.4 415.79 464.33 426.19 457.43 434.46 451.32 442.67 444.22 448.74 436.38 452.55 429.01 456.51 420.49 458.59 410.99 458.94 401.6 460.19 390.98 460.42 379.42 459.7 367.87 460.57 356.52 460.46 346 459.32 335.62 459.06 326.27 457.03 318.61 453.11 311.3 449.32 305.89 443.25 302.93 435.04 300.45 426.75 300.51 416.34 303.53 404.11 306.91 391.89 312.77 379.09 320.43 366.45 328.13 353.87 337.5 341.53 347.91 330.21 358.24 319.16 369.66 309.42 381.63 301.87 393.57 295.09 406.17 290.96 418.87 290.3"
              stroke-dasharray="7 7" transform="rotate(72.72, 400, 400)" opacity="0.69"></path>
        <path d="M416.27 300.88C427.31 301.31 437.23 304.68 445.61 310.32 453.87 316.6 460.45 324.83 464.96 334.26 469.24 343.96 471.4 354.6 471.25 365.5 471.02 376.48 468.71 387.6 464.31 398.2 460.31 408.8 454.94 417.82 448.74 425.02 443.11 432.19 436.54 437.6 429.3 441.14 422.43 444.87 414.62 447.05 406.05 447.76 397.58 449.19 388.17 449.65 378.09 449.11 368.02 449.78 358.25 449.43 349.3 448.09 340.45 447.47 332.58 445.35 326.2 441.66 320.07 438.15 315.61 432.75 313.28 425.58 311.29 418.37 311.5 409.35 314.25 398.74 317.28 388.13 322.49 377 329.26 366.01 336.1 355.1 344.41 344.43 353.64 334.69 362.85 325.23 372.99 316.94 383.57 310.59 394.15 304.87 405.22 301.41 416.27 300.88"
              stroke-dasharray="1 1" transform="rotate(76.76, 400, 400)" opacity="0.36"></path>
        <path d="M413.11 311.47C422.51 311.79 430.86 314.53 437.85 319.17 444.75 324.3 450.21 331.1 453.92 338.95 457.5 347.03 459.33 355.98 459.24 365.18 459.12 374.46 457.26 383.89 453.59 392.91 450.21 401.92 445.57 409.62 440.12 415.83 435.07 422.05 429.16 426.84 422.65 430.12 416.41 433.6 409.4 435.81 401.83 436.77 394.33 438.29 386.14 438.91 377.52 438.52 368.89 439.01 360.66 438.5 353.2 437.06 345.81 436.17 339.32 434.02 334.13 430.59 329.12 427.33 325.53 422.56 323.74 416.36 322.2 410.15 322.51 402.45 324.97 393.43 327.64 384.4 332.15 374.96 338.01 365.66 343.93 356.44 351.13 347.47 359.13 339.35 367.12 331.46 375.92 324.61 385.06 319.4 394.2 314.69 403.71 311.87 413.11 311.47"
              stroke-dasharray="7 1" transform="rotate(80.80000000000001, 400, 400)" opacity="0.22"></path>
        <path d="M409.49 322.06C417.26 322.28 424.1 324.43 429.79 328.12 435.43 332.17 439.86 337.59 442.87 343.9 445.81 350.41 447.34 357.65 447.31 365.16 447.3 372.74 445.84 380.48 442.87 387.94 440.1 395.39 436.2 401.83 431.57 407.09 427.19 412.37 422.04 416.55 416.38 419.55 410.9 422.72 404.8 424.88 398.3 425.99 391.85 427.5 384.91 428.19 377.72 427.93 370.53 428.28 363.77 427.67 357.73 426.23 349.13 424.13 337.05 414.91 334.34 407.56 333.19 402.31 333.56 395.88 335.69 388.42 337.97 380.95 341.77 373.2 346.68 365.6 351.66 358.07 357.7 350.8 364.41 344.26 371.14 337.91 378.52 332.44 386.16 328.33 393.81 324.58 401.72 322.35 409.49 322.06"
              stroke-dasharray="3 6" transform="rotate(84.84, 400, 400)" opacity="0.89"></path>
        <path d="M405.55 332.65C417.86 333.25 427.07 339.66 431.85 349.2 436.52 359.27 436.87 371.68 432.15 383.53 427.93 395.38 419.97 404.31 410.46 409.5 401.39 415.16 390.23 418.03 378.7 417.35 367.16 418.17 357.36 415.41 351.09 409.83 345.08 404.7 342.99 395.8 346.4 383.94 350.23 372.08 358.8 359.63 369.52 349.49 380.35 339.88 393.23 333.37 405.55 332.65"
              stroke-dasharray="1 3" transform="rotate(88.88, 400, 400)" opacity="0.63"></path>
        <path d="M401.41 343.23C410.55 343.57 417.36 348.07 420.93 354.9 424.47 362.05 424.85 371.05 421.43 379.89 418.29 388.72 412.19 395.67 404.84 399.99 397.72 404.61 389.1 407.13 380.41 406.76 371.72 407.23 364.56 404.8 360.12 400.24 355.81 395.98 354.44 389.05 357.12 380.21 360.04 371.37 366.49 362.34 374.52 355.13 382.64 348.25 392.26 343.66 401.41 343.23"
              stroke-dasharray="10 8" transform="rotate(92.92, 400, 400)" opacity="0.07"></path>
        <path d="M397.22 353.82C409.29 354.44 415.21 365.43 410.71 377.17 406.69 388.91 394.46 396.83 382.81 396.17 371.15 396.97 364.22 389.14 367.84 377.4 371.89 365.65 385.14 354.57 397.22 353.82"
              stroke-dasharray="2 2" transform="rotate(96.96, 400, 400)" opacity="0.87"></path>
    </g>
</svg>