<?xml version="1.0" standalone="no"?>
<!DOCTYPE svg PUBLIC "-//W3C//DTD SVG 20010904//EN"
 "http://www.w3.org/TR/2001/REC-SVG-20010904/DTD/svg10.dtd">
<svg version="1.0" xmlns="http://www.w3.org/2000/svg"
 width="1000.000000pt" height="1000.000000pt" viewBox="0 0 1000.000000 1000.000000"
 preserveAspectRatio="xMidYMid meet">
<metadata>
Created by potrace 1.11, written by Peter Selinger 2001-2013
</metadata>
<g transform="translate(0.000000,1000.000000) scale(0.100000,-0.100000)"
fill="#000000" stroke="none">
<path d="M6598 6400 l-3 -519 -45 39 c-92 80 -236 146 -382 175 -71 14 -323
13 -406 -1 -301 -53 -545 -203 -714 -439 -107 -150 -169 -311 -205 -532 -15
-92 -8 -371 11 -468 59 -289 189 -513 391 -677 33 -27 66 -53 73 -59 34 -28
207 -110 282 -133 228 -73 511 -73 727 -1 46 15 163 72 173 84 3 3 21 18 40
32 19 15 50 41 68 60 l33 34 -2 -90 c0 -50 0 -100 0 -112 l1 -23 384 0 384 0
0 1575 0 1575 -404 0 -404 0 -2 -520z m-375 -941 c159 -28 286 -134 346 -288
28 -70 32 -91 38 -212 17 -340 -163 -573 -453 -585 -86 -3 -174 16 -247 52
-67 35 -159 129 -192 198 -85 179 -85 420 0 592 90 184 296 282 508 243z"/>
<path d="M1746 6094 c-178 -35 -338 -112 -449 -218 -21 -20 -40 -36 -43 -36
-2 0 -4 52 -4 115 l0 115 -385 0 -385 0 0 -1150 0 -1150 404 0 403 0 1 613 c0
336 3 628 6 647 32 187 103 302 223 357 65 30 89 35 178 36 198 2 316 -122
341 -358 3 -33 6 -338 7 -677 l0 -618 404 0 403 0 1 613 c1 655 1 654 24 737
47 167 141 264 289 294 241 51 406 -84 432 -355 4 -41 7 -347 7 -681 l0 -608
404 0 404 0 -4 758 c-2 416 -6 771 -10 787 -4 17 -9 44 -12 60 -23 138 -87
294 -163 400 -101 139 -233 231 -416 290 -101 32 -160 39 -321 39 -207 1 -293
-16 -462 -91 -21 -9 -40 -17 -43 -18 -44 -13 -175 -113 -242 -183 l-57 -59
-47 59 c-26 32 -68 75 -93 96 -25 20 -52 42 -59 50 -28 26 -200 101 -282 122
-106 28 -347 35 -454 14z"/>
<path d="M7693 3772 l-33 -3 0 -220 0 -219 1063 0 1062 0 0 220 0 220 -50 1
c-237 2 -2017 3 -2042 1z"/>
</g>
</svg>
